<?xml version="1.0" encoding="UTF-8"?>
<svg xmlns="http://www.w3.org/2000/svg" xmlns:xlink="http://www.w3.org/1999/xlink" width="30pt" height="30pt" viewBox="0 0 30 30" version="1.1">
<g id="surface1">
<path style=" stroke:none;fill-rule:nonzero;fill:rgb(100%,100%,100%);fill-opacity:1;" d="M 15 0 C 23.285156 0 30 6.714844 30 15 C 30 23.285156 23.285156 30 15 30 C 6.714844 30 0 23.285156 0 15 C 0 6.714844 6.714844 0 15 0 Z M 15 0 "/>
<path style=" stroke:none;fill-rule:nonzero;fill:rgb(100%,0%,0%);fill-opacity:1;" d="M 14.992188 7.921875 C 14.992188 7.921875 8.671875 7.921875 7.085938 8.335938 C 6.234375 8.570312 5.535156 9.273438 5.296875 10.132812 C 4.886719 11.71875 4.886719 15.007812 4.886719 15.007812 C 4.886719 15.007812 4.886719 18.304688 5.296875 19.867188 C 5.535156 20.726562 6.222656 21.414062 7.085938 21.652344 C 8.683594 22.078125 14.992188 22.078125 14.992188 22.078125 C 14.992188 22.078125 21.328125 22.078125 22.914062 21.664062 C 23.777344 21.429688 24.464844 20.753906 24.6875 19.878906 C 25.113281 18.304688 25.113281 15.019531 25.113281 15.019531 C 25.113281 15.019531 25.125 11.71875 24.6875 10.132812 C 24.464844 9.273438 23.777344 8.585938 22.914062 8.359375 C 21.328125 7.921875 14.992188 7.921875 14.992188 7.921875 Z M 12.980469 11.96875 L 18.242188 15.007812 L 12.980469 18.03125 Z M 12.980469 11.96875 "/>
</g>
</svg>
